<svg width="64.111" height="87.892" viewBox="0 0 64.111 87.892" xmlns="http://www.w3.org/2000/svg">
    <g id="svgGroup" stroke-linecap="round" fill-rule="evenodd" font-size="9pt" stroke="none" stroke-width="0.25mm" fill="none" style="fill:currentColor">
        <path d="M 29.395 38.672 L 34.961 38.672 A 26.054 26.054 0 0 1 41.495 39.446 A 18.084 18.084 0 0 1 50.464 44.727 A 20.899 20.899 0 0 1 55.988 57.836 A 27.414 27.414 0 0 1 56.055 59.766 Q 56.055 68.897 49.561 74.879 A 21.33 21.33 0 0 1 40.895 79.632 Q 37.717 80.553 33.936 80.783 A 42.586 42.586 0 0 1 31.348 80.86 A 50.314 50.314 0 0 1 21.09 79.844 A 44.131 44.131 0 0 1 16.748 78.712 A 36.401 36.401 0 0 1 10.711 76.218 A 27.614 27.614 0 0 1 5.469 72.657 L 8.203 70.46 Q 12.207 73.731 18.286 75.538 Q 24.365 77.344 31.348 77.344 A 34.57 34.57 0 0 0 37.312 76.863 Q 43.352 75.803 47.095 72.413 A 16.156 16.156 0 0 0 52.523 60.602 A 21.238 21.238 0 0 0 52.539 59.766 A 20.841 20.841 0 0 0 51.696 53.707 A 16.721 16.721 0 0 0 47.974 47.169 A 14.767 14.767 0 0 0 40.511 42.831 Q 37.965 42.188 34.912 42.188 L 29.395 42.188 A 20.673 20.673 0 0 1 25.287 41.807 Q 21.152 40.967 18.701 38.282 A 13.401 13.401 0 0 1 15.419 31.456 A 18.857 18.857 0 0 1 15.137 28.126 Q 15.137 21.876 19.556 17.969 A 13.859 13.859 0 0 1 24.268 15.299 Q 27.841 14.063 32.813 14.063 Q 39.014 14.063 44.336 15.504 Q 49.378 16.868 52.754 19.35 A 18.375 18.375 0 0 1 53.125 19.629 L 50.342 21.778 Q 44.238 17.579 32.813 17.579 A 29.677 29.677 0 0 0 28.98 17.809 Q 24.769 18.359 22.363 20.226 A 8.477 8.477 0 0 0 22.046 20.484 A 9.443 9.443 0 0 0 18.673 27.397 A 12.648 12.648 0 0 0 18.652 28.126 Q 18.652 32.516 20.769 35.303 A 9.247 9.247 0 0 0 21.167 35.792 A 7.564 7.564 0 0 0 24.29 37.883 Q 25.545 38.352 27.109 38.542 A 18.94 18.94 0 0 0 29.395 38.672 Z M 29.395 45.704 L 34.766 45.704 A 20.425 20.425 0 0 1 38.873 46.09 Q 41.312 46.591 43.165 47.743 A 10.609 10.609 0 0 1 45.459 49.659 Q 49.023 53.614 49.023 59.766 Q 49.023 66.016 44.604 69.922 A 13.859 13.859 0 0 1 39.892 72.593 Q 36.319 73.829 31.348 73.829 A 47.248 47.248 0 0 1 23.93 73.266 A 39.979 39.979 0 0 1 19.8 72.388 A 30.479 30.479 0 0 1 15.49 70.893 Q 12.94 69.776 10.986 68.262 L 13.77 66.114 Q 18.13 69.114 25.231 69.97 A 51.181 51.181 0 0 0 31.348 70.313 A 29.677 29.677 0 0 0 35.18 70.083 Q 39.391 69.533 41.798 67.666 A 8.477 8.477 0 0 0 42.114 67.408 A 9.443 9.443 0 0 0 45.487 60.495 A 12.648 12.648 0 0 0 45.508 59.766 A 14.381 14.381 0 0 0 45.151 56.471 A 9.944 9.944 0 0 0 42.969 52.125 A 7.668 7.668 0 0 0 39.78 49.998 Q 38.529 49.536 36.979 49.348 A 18.848 18.848 0 0 0 34.717 49.219 L 29.395 49.219 Q 19.385 49.219 13.745 43.238 A 20.513 20.513 0 0 1 8.23 30.767 A 27.456 27.456 0 0 1 8.105 28.126 Q 8.105 18.995 14.6 13.013 A 21.33 21.33 0 0 1 23.265 8.26 Q 26.443 7.339 30.225 7.109 A 42.586 42.586 0 0 1 32.813 7.032 A 50.145 50.145 0 0 1 43.058 8.047 A 43.765 43.765 0 0 1 47.388 9.18 A 36.331 36.331 0 0 1 53.406 11.674 A 27.7 27.7 0 0 1 58.643 15.235 L 55.908 17.432 A 25.094 25.094 0 0 0 50.795 14.234 A 34.27 34.27 0 0 0 45.85 12.354 Q 39.795 10.547 32.813 10.547 A 34.57 34.57 0 0 0 26.848 11.029 Q 20.808 12.089 17.065 15.479 A 16.156 16.156 0 0 0 11.637 27.29 A 21.238 21.238 0 0 0 11.621 28.126 A 20.96 20.96 0 0 0 12.436 34.105 A 16.581 16.581 0 0 0 16.211 40.748 A 14.821 14.821 0 0 0 23.512 45.007 Q 25.923 45.638 28.795 45.698 A 29.081 29.081 0 0 0 29.395 45.704 Z M 35.303 35.157 L 29.395 35.157 Q 25.635 35.157 23.975 33.228 Q 22.314 31.299 22.314 28.126 Q 22.314 21.094 32.813 21.094 A 53.608 53.608 0 0 1 37.974 21.326 Q 43.388 21.851 46.816 23.568 A 14.162 14.162 0 0 1 47.656 24.024 L 44.824 26.172 A 12.007 12.007 0 0 0 42.643 25.453 Q 40.278 24.886 36.654 24.701 A 75.371 75.371 0 0 0 32.813 24.61 A 29.884 29.884 0 0 0 30.996 24.661 Q 28.338 24.824 27.224 25.506 A 2.656 2.656 0 0 0 27.173 25.538 A 3.337 3.337 0 0 0 26.295 26.336 Q 25.768 27.041 25.735 27.997 A 3.73 3.73 0 0 0 25.732 28.126 A 5.695 5.695 0 0 0 25.817 29.136 Q 25.919 29.703 26.145 30.152 A 2.874 2.874 0 0 0 26.514 30.713 A 2.175 2.175 0 0 0 27.325 31.297 Q 28.033 31.605 29.134 31.637 A 8.95 8.95 0 0 0 29.395 31.641 L 35.449 31.641 A 33.337 33.337 0 0 1 42.272 32.313 A 27.17 27.17 0 0 1 47.339 33.887 A 25.498 25.498 0 0 1 52.967 37.131 A 21.868 21.868 0 0 1 56.055 40.015 A 27.267 27.267 0 0 1 61.279 48.951 A 31.486 31.486 0 0 1 63.064 58.514 A 36.033 36.033 0 0 1 63.086 59.766 Q 63.086 64.454 61.768 68.653 Q 60.449 72.852 57.788 76.368 A 27.401 27.401 0 0 1 51.392 82.447 A 26.873 26.873 0 0 1 46.457 85.095 A 34.768 34.768 0 0 1 42.505 86.451 A 39.102 39.102 0 0 1 35.018 87.751 A 46.932 46.932 0 0 1 31.348 87.891 A 55.061 55.061 0 0 1 17.885 86.284 A 49.661 49.661 0 0 1 13.696 85.035 A 42.622 42.622 0 0 1 5.945 81.485 A 33.883 33.883 0 0 1 0 77.051 L 2.832 74.952 A 31.37 31.37 0 0 0 10.04 79.775 A 40.73 40.73 0 0 0 15.308 81.91 A 50.014 50.014 0 0 0 28.703 84.315 A 57.584 57.584 0 0 0 31.348 84.376 A 40.049 40.049 0 0 0 38.09 83.831 A 31.679 31.679 0 0 0 43.433 82.447 A 27.978 27.978 0 0 0 48.335 80.168 A 21.649 21.649 0 0 0 52.319 77.149 Q 55.811 73.78 57.69 69.337 A 24.142 24.142 0 0 0 59.563 60.404 A 27.624 27.624 0 0 0 59.57 59.766 A 29.088 29.088 0 0 0 58.606 52.163 A 25.186 25.186 0 0 0 56.836 47.486 A 21.472 21.472 0 0 0 49.198 39.01 A 25.843 25.843 0 0 0 48.511 38.575 A 23.074 23.074 0 0 0 39.866 35.491 A 30.164 30.164 0 0 0 35.303 35.157 Z M 29.395 52.735 L 34.766 52.735 Q 38.525 52.735 40.186 54.688 Q 41.846 56.641 41.846 59.766 Q 41.846 66.797 31.348 66.797 A 54.076 54.076 0 0 1 26.162 66.566 Q 20.754 66.043 17.331 64.341 A 14.139 14.139 0 0 1 16.455 63.868 L 19.287 61.719 A 11.989 11.989 0 0 0 21.472 62.439 Q 23.843 63.005 27.486 63.191 A 76.162 76.162 0 0 0 31.348 63.282 A 29.884 29.884 0 0 0 33.164 63.231 Q 35.822 63.068 36.936 62.386 A 2.656 2.656 0 0 0 36.987 62.354 A 3.337 3.337 0 0 0 37.865 61.555 Q 38.393 60.851 38.426 59.895 A 3.73 3.73 0 0 0 38.428 59.766 Q 38.428 58.432 37.876 57.55 A 3.006 3.006 0 0 0 37.622 57.203 Q 36.816 56.251 34.668 56.251 L 29.395 56.251 A 35.621 35.621 0 0 1 22.317 55.575 A 28.966 28.966 0 0 1 17.212 54.053 A 26.063 26.063 0 0 1 11.722 51.068 A 21.777 21.777 0 0 1 8.276 47.999 Q 4.785 44.141 2.93 39.063 A 30.993 30.993 0 0 1 1.12 29.938 A 35.901 35.901 0 0 1 1.074 28.126 Q 1.074 23.438 2.393 19.239 Q 3.711 15.04 6.372 11.524 Q 9.033 8.008 12.769 5.445 A 26.873 26.873 0 0 1 17.703 2.797 A 34.768 34.768 0 0 1 21.655 1.441 A 39.102 39.102 0 0 1 29.142 0.141 A 46.932 46.932 0 0 1 32.813 0.001 A 55.011 55.011 0 0 1 45.995 1.541 A 49.363 49.363 0 0 1 50.439 2.857 A 42.479 42.479 0 0 1 58.278 6.469 A 33.934 33.934 0 0 1 64.111 10.84 L 61.279 12.94 A 31.445 31.445 0 0 0 54.081 8.116 A 40.644 40.644 0 0 0 48.828 5.982 A 49.708 49.708 0 0 0 35.587 3.583 A 57.465 57.465 0 0 0 32.813 3.516 A 40.049 40.049 0 0 0 26.07 4.061 A 31.679 31.679 0 0 0 20.728 5.445 A 27.978 27.978 0 0 0 15.825 7.723 A 21.649 21.649 0 0 0 11.841 10.743 Q 8.35 14.112 6.47 18.555 A 24.142 24.142 0 0 0 4.597 27.487 A 27.624 27.624 0 0 0 4.59 28.126 A 29.294 29.294 0 0 0 5.52 35.629 A 25.033 25.033 0 0 0 7.373 40.528 Q 10.156 46.046 15.869 49.39 A 24.102 24.102 0 0 0 24.271 52.34 A 31.989 31.989 0 0 0 29.395 52.735 Z" vector-effect="non-scaling-stroke"/>
    </g>
</svg>
