<?xml version="1.0" standalone="no"?>
<!DOCTYPE svg PUBLIC "-//W3C//DTD SVG 20010904//EN"
 "http://www.w3.org/TR/2001/REC-SVG-20010904/DTD/svg10.dtd">
<svg version="1.0" xmlns="http://www.w3.org/2000/svg"
 width="512.000000pt" height="512.000000pt" viewBox="0 0 512.000000 512.000000"
 preserveAspectRatio="xMidYMid meet">
<metadata>
Created by potrace 1.11, written by Peter Selinger 2001-2013
</metadata>
<g transform="translate(0.000000,512.000000) scale(0.100000,-0.100000)"
fill="#000000" stroke="none">
<path d="M390 5104 c-30 -8 -80 -26 -110 -41 -72 -35 -188 -151 -223 -223 -61
-126 -57 23 -57 -2280 0 -2303 -4 -2154 57 -2280 35 -72 151 -188 223 -223
126 -61 -23 -57 2280 -57 2303 0 2154 -4 2280 57 72 35 188 151 223 223 61
126 57 -23 57 2280 0 2303 4 2154 -57 2280 -35 72 -151 188 -223 223 -127 61
23 57 -2285 56 -1816 0 -2118 -2 -2165 -15z m2565 -639 c382 -58 741 -210 975
-413 l44 -39 -62 -46 -63 -46 -62 50 c-219 178 -562 308 -926 350 -157 18
-489 7 -616 -21 -438 -94 -730 -354 -852 -755 -26 -86 -27 -100 -27 -300 0
-195 2 -217 26 -307 34 -123 84 -239 142 -326 125 -189 347 -342 582 -402 118
-30 223 -40 433 -40 148 0 208 -4 252 -16 117 -33 179 -120 187 -262 6 -102
-9 -158 -55 -212 -82 -96 -181 -125 -423 -124 -257 0 -450 33 -582 100 l-50
25 60 45 60 44 74 -19 c108 -30 222 -41 415 -41 214 0 265 10 316 60 33 34 37
43 37 90 0 29 -7 67 -16 86 -26 55 -55 64 -201 64 -180 1 -394 16 -488 35
-360 74 -628 272 -787 580 -105 205 -141 363 -142 615 0 189 8 250 54 400 56
181 147 330 290 471 208 205 477 325 830 369 108 13 445 4 575 -15z m-20 -310
c200 -31 396 -92 551 -171 83 -42 245 -151 243 -163 0 -3 -26 -27 -57 -52
l-57 -47 -60 44 c-156 113 -404 203 -661 240 -133 19 -418 22 -529 4 -109 -16
-224 -54 -320 -103 -118 -61 -234 -180 -298 -307 -58 -115 -79 -208 -78 -351
0 -242 68 -419 220 -569 87 -86 178 -137 307 -171 66 -18 124 -22 354 -29 194
-6 294 -13 338 -24 248 -63 403 -267 419 -551 16 -307 -146 -534 -442 -620
-358 -103 -941 -13 -1209 188 -18 13 -15 16 41 59 l59 46 99 -49 c200 -98 399
-134 700 -126 135 4 207 10 249 22 177 50 294 160 336 315 7 24 12 85 11 135
-1 147 -45 260 -136 344 -88 81 -169 101 -409 101 -308 0 -463 26 -621 104
-227 113 -372 300 -447 574 -31 114 -31 383 0 496 102 371 418 622 850 675
106 13 426 5 547 -14z m-117 -296 c202 -22 372 -68 517 -140 55 -27 112 -59
127 -72 l28 -22 -61 -47 -61 -46 -57 34 c-270 161 -863 200 -1112 73 -66 -33
-147 -116 -179 -184 -63 -132 -59 -320 10 -455 49 -97 96 -138 205 -180 56
-22 80 -24 340 -30 287 -8 352 -16 475 -58 173 -60 311 -171 421 -340 185
-283 197 -702 27 -996 -57 -99 -218 -257 -321 -315 -211 -118 -493 -168 -817
-142 -269 21 -485 77 -695 180 -108 53 -265 155 -265 173 0 3 25 27 56 51 l57
45 65 -45 c237 -162 574 -253 935 -253 172 0 278 12 394 46 282 82 467 266
534 533 19 73 21 104 16 230 -5 146 -18 214 -62 315 -59 138 -188 275 -319
337 -135 64 -170 70 -481 79 -313 9 -374 18 -488 77 -120 63 -222 197 -263
343 -8 30 -17 102 -20 160 -11 198 38 333 165 460 104 103 222 159 396 186
101 15 307 17 433 3z m147 -329 c111 -22 259 -72 271 -92 7 -11 -7 -24 -77
-73 -35 -25 -37 -25 -80 -10 -110 39 -449 65 -597 46 -100 -13 -148 -34 -173
-75 -23 -38 -25 -116 -3 -161 27 -57 58 -65 267 -65 313 0 490 -28 675 -108
365 -157 610 -502 667 -939 54 -411 -59 -772 -326 -1041 -186 -189 -428 -308
-735 -363 -236 -42 -607 -27 -874 36 -301 72 -606 218 -780 374 l-45 40 25 21
c14 11 42 32 62 46 l38 26 35 -30 c65 -58 187 -134 299 -188 286 -137 618
-202 975 -191 192 6 304 24 450 73 184 61 305 134 429 256 129 128 222 289
272 473 31 113 39 362 16 494 -60 344 -252 611 -541 751 -179 86 -307 110
-602 110 -311 0 -379 23 -444 150 -31 61 -39 210 -15 274 30 79 106 138 216
170 84 23 102 25 300 21 139 -2 212 -8 295 -25z"/>
</g>
</svg>
